<?xml version="1.0" encoding="utf-8"?>
<!-- Generator: Adobe Illustrator 19.0.0, SVG Export Plug-In . SVG Version: 6.00 Build 0)  -->
<svg version="1.1" id="VH-logo" xmlns="http://www.w3.org/2000/svg" xmlns:xlink="http://www.w3.org/1999/xlink" x="0px" y="0px"
	 viewBox="0 0 156 36" style="enable-background:new 0 0 156 36;" xml:space="preserve">
<style type="text/css">
	.st1{display:none;}
	.st2{display:inline;}
</style>
<g>
	<path class="st0" d="M8.4,11.4h2.2l3.7,10c0.2,0.6,0.4,1.1,0.5,1.6c0.1,0.5,0.2,0.8,0.3,1h0c0.1-0.2,0.2-0.6,0.3-1
		c0.1-0.5,0.3-1,0.5-1.6l3.6-10h2L16,26.2h-2L8.4,11.4z"/>
	<path class="st0" d="M26.4,11.4h2v14.8h-2V11.4z"/>
	<path class="st0" d="M38.1,26.5c-0.6,0-1.1-0.1-1.6-0.2c-0.5-0.1-0.9-0.2-1.2-0.4c-0.4-0.2-0.7-0.3-0.9-0.5
		c-0.3-0.2-0.4-0.3-0.6-0.5l1-1.4c0.1,0.1,0.2,0.2,0.4,0.3c0.2,0.1,0.4,0.3,0.7,0.4c0.3,0.1,0.6,0.3,1,0.4c0.4,0.1,0.8,0.2,1.3,0.2
		c0.4,0,0.8-0.1,1.2-0.2c0.4-0.1,0.7-0.3,0.9-0.5c0.3-0.2,0.4-0.5,0.6-0.8c0.1-0.3,0.2-0.6,0.2-0.9c0-0.4-0.1-0.8-0.3-1.1
		c-0.2-0.3-0.4-0.6-0.8-0.8c-0.3-0.2-0.7-0.5-1.1-0.7c-0.4-0.2-0.8-0.4-1.3-0.6c-0.5-0.2-0.9-0.5-1.3-0.7c-0.4-0.3-0.8-0.5-1.1-0.9
		c-0.3-0.3-0.6-0.7-0.7-1.1c-0.2-0.4-0.3-0.9-0.3-1.5c0-0.6,0.1-1.2,0.4-1.6c0.2-0.5,0.6-0.9,1-1.2c0.4-0.3,0.9-0.6,1.4-0.7
		c0.5-0.2,1.1-0.3,1.7-0.3c0.6,0,1.1,0,1.5,0.1c0.4,0.1,0.8,0.2,1.1,0.3c0.3,0.1,0.6,0.3,0.8,0.4c0.2,0.1,0.4,0.3,0.5,0.4l-0.9,1.5
		c-0.3-0.2-0.6-0.4-1.1-0.7c-0.5-0.2-1.1-0.3-1.9-0.3c-0.7,0-1.3,0.2-1.8,0.6c-0.5,0.4-0.7,0.9-0.7,1.5c0,0.4,0.1,0.7,0.2,0.9
		c0.1,0.3,0.3,0.5,0.6,0.7c0.2,0.2,0.5,0.4,0.9,0.6c0.3,0.2,0.7,0.3,1,0.5c0.5,0.2,1,0.5,1.5,0.7c0.5,0.3,0.9,0.6,1.3,0.9
		c0.4,0.4,0.7,0.8,1,1.3c0.2,0.5,0.4,1.1,0.4,1.8c0,0.6-0.1,1.2-0.4,1.7c-0.2,0.5-0.6,0.9-1,1.3c-0.4,0.4-1,0.6-1.6,0.8
		C39.5,26.4,38.8,26.5,38.1,26.5z"/>
	<path class="st0" d="M52.4,11.4h1.9l5.7,14.8h-2.2l-1.3-3.5H50l-1.3,3.5h-2L52.4,11.4z M56,21.1l-1.8-4.8c-0.2-0.6-0.4-1.1-0.5-1.5
		c-0.1-0.4-0.2-0.7-0.4-1h0c-0.1,0.3-0.2,0.7-0.4,1.1c-0.1,0.4-0.3,0.9-0.5,1.4l-1.8,4.8H56z"/>
	<path class="st0" d="M70.9,26.5c-1.2,0-2.2-0.2-3.2-0.6c-0.9-0.4-1.7-1-2.4-1.7c-0.6-0.7-1.1-1.5-1.4-2.5c-0.3-0.9-0.5-1.9-0.5-2.9
		c0-1,0.2-2,0.5-2.9c0.3-0.9,0.8-1.7,1.5-2.4c0.6-0.7,1.4-1.3,2.4-1.7c0.9-0.4,2-0.6,3.2-0.6c1,0,1.9,0.1,2.7,0.3
		c0.8,0.2,1.4,0.6,2,1l-1,1.5c-0.6-0.4-1.1-0.7-1.7-0.9c-0.6-0.2-1.3-0.3-2.1-0.3c-0.9,0-1.7,0.2-2.4,0.5c-0.7,0.3-1.2,0.8-1.7,1.3
		c-0.4,0.5-0.8,1.2-1,1.9c-0.2,0.7-0.3,1.5-0.3,2.2c0,0.8,0.1,1.5,0.3,2.3c0.2,0.7,0.5,1.4,1,1.9c0.4,0.6,1,1,1.7,1.4
		c0.7,0.3,1.5,0.5,2.4,0.5c0.8,0,1.5-0.1,2.1-0.2c0.6-0.2,1.1-0.4,1.4-0.6V20h-3.1v-1.6h5.1V25c-0.6,0.4-1.3,0.8-2.2,1.1
		C73.3,26.3,72.2,26.5,70.9,26.5z"/>
	<path class="st0" d="M82.4,11.4h7.8v1.7h-5.8v4.5h5.1v1.7h-5.1v5.3h6v1.7h-8V11.4z"/>
	<path class="st0" d="M96.2,11.4h0.6V18h9.8v-6.7h0.6v14.8h-0.6v-7.6h-9.8v7.6h-0.6V11.4z"/>
	<path class="st0" d="M117.9,11.4h0.7l5.6,14.8h-0.6l-1.7-4.4h-7.4l-1.7,4.4h-0.6L117.9,11.4z M121.7,21.3l-3.5-9.2l-3.5,9.2H121.7z
		"/>
	<path class="st0" d="M129.3,11.4h0.6v14.3h6.1v0.5h-6.7V11.4z"/>
	<path class="st0" d="M141.4,11.4h0.6v14.3h6.1v0.5h-6.7V11.4z"/>
</g>
<g class="st1">
	<g class="st2">
		<path d="M-3.5,6.2c0.2,0,0.3-0.2,0.3-0.3c0,0,0-0.1,0-0.1h-1.3l0,0v0H-10h-1.3c0,0,0,0,0,0.1c0,0.1,0.1,0.3,0.3,0.3
			c0.9,0.2,1,0.8,1,1.1v10.4h-21.3l0.4,1.1H-10v10.4c0,0.3-0.1,0.9-1,1.1c-0.2,0-0.3,0.2-0.3,0.3c0,0,0,0.1,0,0.1h1.3h5.5v0l0,0h1.3
			c0,0,0,0,0-0.1c0-0.1-0.1-0.3-0.3-0.3c-0.9-0.2-1-0.9-1-1.1v-0.1c0,0,0,0,0,0l0,0V7.4l0,0c0,0,0,0,0,0V7.3
			C-4.5,7.1-4.4,6.5-3.5,6.2z"/>
		<path d="M-38.3,18.8l-0.4-1.1h-12.9V7.4l0,0c0,0,0,0,0,0V7.3c0-0.2,0.1-0.9,1-1.1c0.2,0,0.3-0.2,0.3-0.3h-1.3l0,0v0h-5.7h-1.3
			c0,0.1,0.1,0.3,0.3,0.3c0.9,0.2,1,0.8,1,1.1v21.9c0,0.3-0.1,0.9-1,1.1c-0.2,0-0.3,0.2-0.3,0.3c0,0,0,0.1,0,0.1h1.3h5.7v0l0,0h1.3
			c0,0,0-0.1,0-0.1c0-0.1-0.1-0.3-0.3-0.3c-0.9-0.2-1-0.9-1-1.1v-0.1c0,0,0,0,0,0l0,0V18.8H-38.3z"/>
	</g>
	<g class="st2">
		<path d="M-23.1,19.6h-1.3l-3.3,11.1L-39.5-5.2c0-0.1-0.2-0.9,0.6-1.2c0.2-0.1,0.3-0.2,0.3-0.3c0,0,0-0.1,0-0.1h-1.6h-0.2h-5.7
			h-1.3c0,0,0,0.1,0,0.1c0,0.1,0.1,0.3,0.3,0.3c1.3,0.4,1.7,1.2,1.8,1.4l0,0.1c0,0,0,0,0,0l13,39.7c0,0,0.6,1.6,1.2,3.2
			c-0.2,0.5-2.7,8.9,1.7,8.6c2.3-0.1,3.2-2.8,3.5-6.3c0.3-3.8-1-7.5-1-7.5L-23.1,19.6z M-30,46c-0.8,0-2-0.7-0.1-6.1
			c0.3,0.8,0.5,1.6,0.6,1.9C-28.6,44.8-29.1,45.9-30,46z"/>
		<path d="M-15-6.8h-1.1h-0.2h-1.6c0,0,0,0.1,0,0.1c0,0.1,0,0.2,0.3,0.3C-16.7-6-17-5.1-17-5.1l0,0L-23.6,17h1.3l6.6-21.9
			c0,0,0.4-1.2,1.8-1.5c0.2,0,0.3-0.2,0.3-0.3c0,0,0-0.1,0-0.1H-15z"/>
	</g>
</g>
</svg>
